<svg width="45" height="45" viewBox="0 0 45 45" fill="none" xmlns="http://www.w3.org/2000/svg">
<path d="M45 22.5C45 10.0734 34.9267 0 22.5 0C10.0733 0 0 10.0734 0 22.5C0 33.7301 8.22666 43.0401 18.9833 44.7267V29.0034H13.27V22.5H18.9833V17.5434C18.9833 11.9034 22.3433 8.79002 27.4833 8.79002C29.9467 8.79002 32.52 9.23002 32.52 9.23002V14.7667H29.6833C26.89 14.7667 26.0167 16.5 26.0167 18.28V22.5H32.2567L31.26 29.0034H26.0167V44.7267C36.7733 43.0401 45 33.7301 45 22.5Z" fill="#232222"/>
<path d="M31.2566 29.0032L32.2533 22.4998H26.0133V18.2798C26.0133 16.4998 26.8833 14.7665 29.6799 14.7665H32.5166V9.2298C32.5166 9.2298 29.9433 8.78979 27.4799 8.78979C22.3399 8.78979 18.9799 11.9031 18.9799 17.5431V22.4998H13.2666V29.0032H18.9799V44.7265C20.1266 44.9065 21.2999 44.9999 22.4966 44.9999C23.6933 44.9999 24.8666 44.9065 26.0133 44.7265V29.0032H31.2566Z" fill="#D8BFD8"/>
</svg>
