<svg width="45" height="45" viewBox="0 0 45 45" fill="none" xmlns="http://www.w3.org/2000/svg">
<path d="M22.5 45C34.9264 45 45 34.9264 45 22.5C45 10.0736 34.9264 0 22.5 0C10.0736 0 0 10.0736 0 22.5C0 34.9264 10.0736 45 22.5 45Z" fill="#232222"/>
<path d="M22.4273 10.5645C26.1984 10.5645 26.6436 10.5774 28.1321 10.6454C29.5076 10.7068 30.2552 10.9301 30.7536 11.1178C31.4114 11.3669 31.8832 11.6646 32.3783 12.1467C32.8733 12.6288 33.179 13.0851 33.4349 13.7289C33.6276 14.2143 33.8568 14.9423 33.9199 16.2819C33.9864 17.7315 34.003 18.1683 34.003 21.8375C34.003 25.5068 33.9897 25.9436 33.9199 27.3932C33.8568 28.7328 33.6276 29.4608 33.4349 29.9461C33.179 30.5868 32.8733 31.0463 32.3783 31.5284C31.8832 32.0105 31.4148 32.3082 30.7536 32.5573C30.2552 32.745 29.5076 32.9683 28.1321 33.0297C26.6436 33.0944 26.1984 33.1106 22.4273 33.1106C18.6562 33.1106 18.211 33.0977 16.7225 33.0297C15.347 32.9683 14.5994 32.745 14.101 32.5573C13.4432 32.3082 12.9714 32.0105 12.4763 31.5284C11.9813 31.0463 11.6756 30.59 11.4198 29.9461C11.2271 29.4608 10.9978 28.7328 10.9347 27.3932C10.8682 25.9436 10.8516 25.5068 10.8516 21.8375C10.8516 18.1683 10.8649 17.7315 10.9347 16.2819C10.9978 14.9423 11.2271 14.2143 11.4198 13.7289C11.6756 13.0883 11.9813 12.6288 12.4763 12.1467C12.9714 11.6646 13.4399 11.3669 14.101 11.1178C14.5994 10.9301 15.347 10.7068 16.7225 10.6454C18.211 10.5806 18.6596 10.5645 22.4273 10.5645ZM22.4273 8.08594C18.5931 8.08594 18.1113 8.10212 16.6062 8.17007C15.1044 8.23801 14.0778 8.46775 13.1774 8.81073C12.2504 9.16342 11.463 9.63259 10.6755 10.3962C9.8914 11.1598 9.4063 11.9267 9.04747 12.8327C8.6986 13.7063 8.45938 14.7061 8.38961 16.1719C8.31984 17.6376 8.30322 18.1068 8.30322 21.8408C8.30322 25.5747 8.31984 26.0439 8.38961 27.5097C8.45938 28.9722 8.69528 29.972 9.04747 30.8489C9.40962 31.7516 9.8914 32.5185 10.6755 33.2853C11.4596 34.049 12.2471 34.5214 13.1774 34.8708C14.0745 35.2106 15.1011 35.4435 16.6062 35.5115C18.1113 35.5794 18.5931 35.5956 22.4273 35.5956C26.2615 35.5956 26.7433 35.5794 28.2484 35.5115C29.7502 35.4435 30.7768 35.2138 31.6772 34.8708C32.6042 34.5181 33.3917 34.049 34.1791 33.2853C34.9632 32.5217 35.4483 31.7549 35.8071 30.8489C36.156 29.9753 36.3952 28.9754 36.465 27.5097C36.5348 26.0439 36.5514 25.5747 36.5514 21.8408C36.5514 18.1068 36.5348 17.6376 36.465 16.1719C36.3952 14.7094 36.1593 13.7095 35.8071 12.8327C35.445 11.9299 34.9632 11.1631 34.1791 10.3962C33.395 9.63259 32.6075 9.16018 31.6772 8.81073C30.7801 8.47098 29.7535 8.23801 28.2484 8.17007C26.7433 8.10212 26.2615 8.08594 22.4273 8.08594Z" fill="#D8BFD8"/>
<path d="M22.4273 14.7771C18.4236 14.7771 15.1775 17.9384 15.1775 21.8373C15.1775 25.7363 18.4236 28.8976 22.4273 28.8976C26.4309 28.8976 29.677 25.7363 29.677 21.8373C29.677 17.9384 26.4309 14.7771 22.4273 14.7771ZM22.4273 26.4223C19.829 26.4223 17.7192 24.3709 17.7192 21.8373C17.7192 19.3038 19.8257 17.2524 22.4273 17.2524C25.0288 17.2524 27.1353 19.3038 27.1353 21.8373C27.1353 24.3709 25.0288 26.4223 22.4273 26.4223Z" fill="#D8BFD8"/>
<path d="M29.966 16.149C30.9018 16.149 31.6605 15.4102 31.6605 14.4988C31.6605 13.5874 30.9018 12.8486 29.966 12.8486C29.0301 12.8486 28.2715 13.5874 28.2715 14.4988C28.2715 15.4102 29.0301 16.149 29.966 16.149Z" fill="#D8BFD8"/>
</svg>
