<svg width="120" height="102" viewBox="0 0 120 102" fill="none" xmlns="http://www.w3.org/2000/svg">
<path d="M116.272 22.8574L43.0262 64.5326" stroke="#DEA966" stroke-width="2" stroke-miterlimit="10"/>
<path d="M115.502 30.7703L47.9594 69.3456" stroke="#DEA966" stroke-width="2" stroke-miterlimit="10"/>
<path d="M114.732 38.6863L54.0741 73.1203" stroke="#DEA966" stroke-width="2" stroke-miterlimit="10"/>
<path d="M113.826 46.6793L62.0104 76.029" stroke="#DEA966" stroke-width="2" stroke-miterlimit="10"/>
<path d="M116.507 15.2496L39.2437 59.2357" stroke="#DEA966" stroke-width="2" stroke-miterlimit="10"/>
<path d="M109.644 11.7245L36.5311 53.3257" stroke="#DEA966" stroke-width="2" stroke-miterlimit="10"/>
<path d="M102.379 8.43365L34.9692 46.9289" stroke="#DEA966" stroke-width="2" stroke-miterlimit="10"/>
<path d="M95.1136 5.13971L34.8579 39.3426" stroke="#DEA966" stroke-width="2" stroke-miterlimit="10"/>
<path d="M87.9814 1.77179L36.1631 31.1216" stroke="#DEA966" stroke-width="2" stroke-miterlimit="10"/>
<path d="M119.851 13.3268C119.851 13.3268 118.109 14.3283 115.211 13.3268L117.531 17.3295C118.109 14.3283 119.851 13.3268 119.851 13.3268Z" fill="#DEA966"/>
<path d="M91.0589 0C91.0589 0 89.3176 1.00144 86.4196 0L88.7392 4.00266C89.3176 1.00144 91.0589 0 91.0589 0Z" fill="#DEA966"/>
<path d="M98.5931 3.13989C98.5931 3.13989 96.8518 4.14133 93.9537 3.13989L96.2734 7.14256C96.8518 4.14133 98.5931 3.13989 98.5931 3.13989Z" fill="#DEA966"/>
<path d="M105.858 6.43079C105.858 6.43079 104.117 7.43222 101.219 6.43079L103.539 10.4334C104.117 7.43222 105.858 6.43079 105.858 6.43079Z" fill="#DEA966"/>
<path d="M113.123 9.72473C113.123 9.72473 111.382 10.7262 108.484 9.72473L110.804 13.7274C111.382 10.7262 113.123 9.72473 113.123 9.72473Z" fill="#DEA966"/>
<path d="M118.078 36.7635C118.078 36.7635 116.337 37.7649 113.439 36.7635L115.759 40.7662C116.337 37.7649 118.078 36.7635 118.078 36.7635Z" fill="#DEA966"/>
<path d="M117.039 44.8304C117.039 44.8304 115.298 45.8319 112.4 44.8304L114.719 48.8331C115.298 45.8319 117.039 44.8304 117.039 44.8304Z" fill="#DEA966"/>
<path d="M118.916 28.8075C118.916 28.8075 117.175 29.8089 114.277 28.8075L116.597 32.8102C117.175 29.8089 118.916 28.8075 118.916 28.8075Z" fill="#DEA966"/>
<path d="M119.687 20.8915C119.687 20.8915 117.945 21.893 115.047 20.8915L117.367 24.8942C117.945 21.893 119.687 20.8915 119.687 20.8915Z" fill="#DEA966"/>
<path d="M64.4043 79.8438C83.6211 79.8438 99.1993 64.3237 99.1993 45.1786C99.1993 26.0336 83.6211 10.5135 64.4043 10.5135C45.1875 10.5135 29.6093 26.0336 29.6093 45.1786C29.6093 64.3237 45.1875 79.8438 64.4043 79.8438Z" fill="#DEA966" stroke="#DEA966" stroke-miterlimit="10"/>
<path d="M64.4043 53.6523C69.1017 53.6523 72.9097 49.8585 72.9097 45.1786C72.9097 40.4988 69.1017 36.705 64.4043 36.705C59.7068 36.705 55.8988 40.4988 55.8988 45.1786C55.8988 49.8585 59.7068 53.6523 64.4043 53.6523Z" fill="black"/>
<path d="M1 55.0389C1 80.5648 21.7719 101.259 47.3934 101.259C65.8579 101.259 81.8018 90.5113 89.2681 74.9536C82.5688 80.5062 73.9551 83.8495 64.5589 83.8495C43.2056 83.8495 25.8978 66.6063 25.8978 45.3327C25.8978 28.5671 36.6518 14.3067 51.6585 9.01599C50.2543 8.88966 48.8316 8.81879 47.3934 8.81879C21.7719 8.81879 1 29.5131 1 55.0389Z" fill="black" stroke="black" stroke-miterlimit="10"/>
</svg>
