<svg width="45" height="45" viewBox="0 0 45 45" fill="none" xmlns="http://www.w3.org/2000/svg">
<path d="M22.5 45C34.9264 45 45 34.9264 45 22.5C45 10.0736 34.9264 0 22.5 0C10.0736 0 0 10.0736 0 22.5C0 34.9264 10.0736 45 22.5 45Z" fill="#232222"/>
<path d="M35.3699 14.653C35.3699 14.5242 35.3666 14.5176 35.2324 14.5209C34.9081 14.5209 34.5872 14.4846 34.2695 14.4351C33.1134 14.26 29.3601 12.275 28.7247 9.02842C28.7116 8.96566 28.5708 8.15979 28.5708 7.8163C28.5708 7.66437 28.5708 7.66107 28.4201 7.66107C28.3841 7.66107 28.3513 7.66107 28.3153 7.66107C26.8481 7.66107 25.3775 7.66107 23.9103 7.66107C23.6155 7.66107 23.6548 7.62474 23.6548 7.92199C23.6548 14.3426 23.6548 20.7632 23.6548 27.1838C23.6548 27.4249 23.6483 27.6627 23.6057 27.8972C23.383 29.139 22.7542 30.1133 21.6865 30.7772C20.7629 31.3519 19.7574 31.517 18.6897 31.3023C18.3524 31.2363 18.038 31.1074 17.7236 30.9819C17.6974 30.9588 17.6712 30.9357 17.6482 30.9126C17.5434 30.8234 17.4255 30.7474 17.3109 30.6682C15.9517 29.7203 15.3065 28.4025 15.503 26.7544C15.7028 25.0832 16.6559 23.947 18.2279 23.3624C18.6963 23.1874 19.1908 23.1147 19.6919 23.1445C20.0162 23.161 20.3371 23.2039 20.6483 23.2931C20.7563 23.3228 20.8153 23.2865 20.8218 23.1709C20.8218 23.1313 20.8218 23.0883 20.8218 23.0487C20.8218 21.896 20.7793 19.3793 20.7727 19.3727C20.7727 19.0424 20.7727 18.7088 20.7825 18.3786C20.7825 18.2828 20.7367 18.2663 20.6581 18.2564C20.0653 18.187 19.4725 18.1705 18.8764 18.2167C18.0544 18.2762 17.2552 18.4479 16.479 18.7287C15.241 19.1778 14.157 19.8714 13.2203 20.7962C12.4146 21.5922 11.7825 22.5103 11.3207 23.5474C10.8753 24.5382 10.6231 25.5786 10.5511 26.6619C10.5216 27.1309 10.5249 27.6032 10.5707 28.0755C10.6297 28.7261 10.7541 29.3636 10.9506 29.9878C11.5139 31.7779 12.5423 33.2443 13.9998 34.4102C14.1471 34.5291 14.2913 34.6579 14.4681 34.7339C14.5434 34.7999 14.6155 34.866 14.6908 34.9321C14.9266 35.1104 15.1788 35.2656 15.4441 35.3944C17.0751 36.2069 18.7945 36.5372 20.6057 36.3159C22.9572 36.0253 24.9157 34.975 26.455 33.1651C27.9059 31.4608 28.6101 29.4627 28.6232 27.2267C28.6428 24.0296 28.6264 20.8325 28.6297 17.6321C28.6297 17.5562 28.5871 17.4472 28.669 17.4075C28.7345 17.3778 28.8 17.4637 28.8623 17.5066C30.0413 18.2894 31.3153 18.8542 32.6941 19.1712C33.4966 19.3562 34.3055 19.4685 35.1308 19.4685C35.3896 19.4685 35.4256 19.4553 35.4256 19.1943C35.4256 18.0582 35.3666 14.9536 35.3699 14.653Z" fill="#D8BFD8"/>
</svg>
